<?xml version="1.0" encoding="utf-8"?>
<!-- Generator: Adobe Illustrator 16.0.4, SVG Export Plug-In . SVG Version: 6.00 Build 0)  -->
<!DOCTYPE svg PUBLIC "-//W3C//DTD SVG 1.1//EN" "http://www.w3.org/Graphics/SVG/1.1/DTD/svg11.dtd">
<svg version="1.1" id="Layer_1" xmlns="http://www.w3.org/2000/svg" xmlns:xlink="http://www.w3.org/1999/xlink" x="0px" y="0px"
	 width="77px" height="80.912px" viewBox="0 0 77 80.912" enable-background="new 0 0 77 80.912" xml:space="preserve">
<g>
	<path fill="#5A9DD5" d="M70.137,71.23c0,1.558-1.262,2.819-2.818,2.819H9.682c-1.557,0-2.82-1.262-2.82-2.819V13.595
		c0-1.558,1.264-2.819,2.82-2.819h57.637c1.557,0,2.818,1.262,2.818,2.819V71.23z"/>
	<g>
		<path opacity="0.15" d="M64.801,67.577c0,0.998-0.81,1.807-1.807,1.807H14.005c-0.999,0-1.806-0.809-1.806-1.807V17.918
			c0-0.997,0.807-1.807,1.806-1.807h48.989c0.997,0,1.807,0.81,1.807,1.807V67.577z"/>
		<path fill="#FFFFFF" d="M64.801,63.657c0,0.998-0.81,1.807-1.807,1.807H14.005c-0.999,0-1.806-0.809-1.806-1.807V17.918
			c0-0.997,0.807-1.807,1.806-1.807h48.989c0.997,0,1.807,0.81,1.807,1.807V63.657z"/>
	</g>
	<path fill="#D3D3D3" d="M53.805,13.269l-4.896-0.001c-5.156,0-6.629-5.116-6.629-5.116h-7.559c0,0-1.473,5.116-6.629,5.116
		l-4.896,0.001c-2.17,0-3.929,1.759-3.929,3.929v1.531h16.614h5.238h16.613v-1.531C57.732,15.027,55.975,13.269,53.805,13.269z"/>
	<rect x="19.267" y="18.705" fill="#A5A4A4" width="38.466" height="2.229"/>
	<path fill="#9B9A9A" d="M44.604,35.191c0-3.335-2.739-6.049-6.104-6.049c-3.366,0-6.105,2.74-6.105,6.105v15.003
		c0,3.422,2.739,6.161,6.105,6.161c3.365,0,6.104-2.764,6.104-6.161V35.191z M41.827,50.251c0,1.866-1.493,3.384-3.327,3.384
		c-1.835,0-3.328-1.518-3.328-3.384c0-0.712,0-0.86,0.296-1.157l6.359-8.486V50.251z M41.668,36.35l-6.496,8.588v-9.689
		c0-1.834,1.493-3.328,3.328-3.328c1.834,0,3.327,1.494,3.327,3.328C41.827,35.957,41.827,36.031,41.668,36.35z"/>
	<g>
		<path fill="#D3D3D3" d="M73,80.912h-0.404v-2H73c1.103,0,2-0.896,2-2l2-0.035v0.035C77,79.118,75.206,80.912,73,80.912z
			 M69.523,80.912h-5.117v-2h5.117V80.912z M61.334,80.912h-5.117v-2h5.117V80.912z M53.145,80.912h-5.117v-2h5.117V80.912z
			 M44.955,80.912h-5.117v-2h5.117V80.912z M36.766,80.912h-5.117v-2h5.117V80.912z M28.576,80.912h-5.118v-2h5.118V80.912z
			 M20.387,80.912h-5.118v-2h5.118V80.912z M12.197,80.912H7.079v-2h5.118V80.912z M4.008,80.912H4c-2.206,0-4-1.794-4-4v-0.395h2
			v0.395c0,1.104,0.896,2,2,2L4.008,80.912z M77,73.807h-2v-5.119h2V73.807z M2,73.445H0v-5.117h2V73.445z M77,65.617h-2v-5.119h2
			V65.617z M2,65.256H0v-5.117h2V65.256z M77,57.428h-2v-5.119h2V57.428z M2,57.066H0v-5.117h2V57.066z M77,49.238h-2v-5.119h2
			V49.238z M2,48.877H0V43.76h2V48.877z M77,41.049h-2V35.93h2V41.049z M2,40.688H0V35.57h2V40.688z M77,32.859h-2V27.74h2V32.859z
			 M2,32.498H0v-5.117h2V32.498z M77,24.67h-2v-5.119h2V24.67z M2,24.309H0V19.19h2V24.309z M77,16.48h-2v-5.119h2V16.48z M2,16.119
			H0v-5.118h2V16.119z M77,8.291h-2V7.912c0-1.103-0.897-2-2-2l-0.026-2H73c2.206,0,4,1.795,4,4V8.291z M0,7.93V7.912
			c0-2.205,1.794-4,4-4h0.387v2H4c-1.104,0-2,0.897-2,2L0,7.93z M69.902,5.912h-5.119v-2h5.119V5.912z M61.713,5.912h-5.119v-2
			h5.119V5.912z M53.523,5.912h-5.119v-2h5.119V5.912z M28.955,5.912h-5.119v-2h5.119V5.912z M20.766,5.912h-5.119v-2h5.119V5.912z
			 M12.576,5.912H7.457v-2h5.119V5.912z"/>
	</g>
	<path fill="#D3D3D3" d="M38.5,2.8c1.19,0,2.155,0.965,2.155,2.155c0,1.191-0.965,2.156-2.155,2.156
		c-1.191,0-2.156-0.965-2.156-2.156C36.344,3.765,37.309,2.8,38.5,2.8 M38.5,0c-2.733,0-4.956,2.223-4.956,4.955
		c0,2.733,2.223,4.956,4.956,4.956c2.732,0,4.955-2.223,4.955-4.956C43.455,2.223,41.232,0,38.5,0L38.5,0z"/>
</g>
</svg>
