<?xml version="1.0" encoding="utf-8"?>
<!-- Generator: Adobe Illustrator 16.0.4, SVG Export Plug-In . SVG Version: 6.00 Build 0)  -->
<!DOCTYPE svg PUBLIC "-//W3C//DTD SVG 1.1//EN" "http://www.w3.org/Graphics/SVG/1.1/DTD/svg11.dtd">
<svg version="1.1" id="Layer_1" xmlns="http://www.w3.org/2000/svg" xmlns:xlink="http://www.w3.org/1999/xlink" x="0px" y="0px"
	 width="335.334px" height="81px" viewBox="0 0 335.334 81" enable-background="new 0 0 335.334 81" xml:space="preserve">
<g>
	<path fill="#5A9DD5" d="M70.137,71.23c0,1.559-1.262,2.818-2.818,2.818H9.682c-1.557,0-2.82-1.262-2.82-2.818V13.594
		c0-1.558,1.264-2.819,2.82-2.819h57.637c1.557,0,2.818,1.262,2.818,2.819V71.23z"/>
	<g>
		<path opacity="0.15" enable-background="new    " d="M64.801,67.577c0,0.998-0.81,1.808-1.807,1.808H14.005
			c-0.999,0-1.806-0.81-1.806-1.808V17.918c0-0.997,0.807-1.807,1.806-1.807h48.989c0.997,0,1.807,0.81,1.807,1.807V67.577z"/>
		<path fill="#FFFFFF" d="M64.801,63.657c0,0.998-0.81,1.808-1.807,1.808H14.005c-0.999,0-1.806-0.81-1.806-1.808V17.918
			c0-0.997,0.807-1.807,1.806-1.807h48.989c0.997,0,1.807,0.81,1.807,1.807V63.657z"/>
	</g>
	<path fill="#D3D3D3" d="M53.805,13.268l-4.896-0.001c-5.156,0-6.629-5.116-6.629-5.116h-7.559c0,0-1.473,5.116-6.629,5.116
		l-4.896,0.001c-2.17,0-3.929,1.759-3.929,3.929v1.531h16.614h5.238h16.613v-1.531C57.733,15.027,55.975,13.268,53.805,13.268z"/>
	<rect x="19.267" y="18.705" fill="#A5A4A4" width="38.466" height="2.229"/>
	<path fill="#9B9A9A" d="M44.605,35.191c0-3.335-2.739-6.049-6.104-6.049c-3.366,0-6.105,2.74-6.105,6.105V50.25
		c0,3.422,2.739,6.161,6.105,6.161c3.365,0,6.104-2.764,6.104-6.161V35.191z M41.828,50.251c0,1.866-1.493,3.384-3.327,3.384
		c-1.835,0-3.328-1.518-3.328-3.384c0-0.712,0-0.86,0.296-1.157l6.359-8.486V50.251z M41.668,36.349l-6.496,8.588v-9.689
		c0-1.834,1.493-3.328,3.328-3.328c1.834,0,3.327,1.494,3.327,3.328C41.828,35.957,41.828,36.031,41.668,36.349z"/>
	<g>
		<path fill="#D3D3D3" d="M73,80.912h-0.404v-2H73c1.103,0,2-0.896,2-2l2-0.035v0.035C77,79.118,75.206,80.912,73,80.912z
			 M69.524,80.912h-5.117v-2h5.117V80.912z M61.334,80.912h-5.117v-2h5.117V80.912z M53.145,80.912h-5.117v-2h5.117V80.912z
			 M44.955,80.912h-5.117v-2h5.117V80.912z M36.766,80.912h-5.117v-2h5.117V80.912z M28.577,80.912h-5.118v-2h5.118V80.912z
			 M20.387,80.912h-5.118v-2h5.118V80.912z M12.198,80.912H7.08v-2h5.118V80.912z M4.008,80.912H4c-2.206,0-4-1.794-4-4v-0.395h2
			v0.395c0,1.104,0.896,2,2,2L4.008,80.912z M77,73.806h-2v-5.119h2V73.806z M2,73.445H0v-5.117h2V73.445z M77,65.617h-2v-5.119h2
			V65.617z M2,65.255H0v-5.117h2V65.255z M77,57.427h-2v-5.119h2V57.427z M2,57.066H0v-5.117h2V57.066z M77,49.238h-2v-5.119h2
			V49.238z M2,48.877H0V43.76h2V48.877z M77,41.048h-2v-5.119h2V41.048z M2,40.687H0V35.57h2V40.687z M77,32.859h-2V27.74h2V32.859z
			 M2,32.498H0v-5.117h2V32.498z M77,24.67h-2v-5.119h2V24.67z M2,24.308H0V19.19h2V24.308z M77,16.48h-2v-5.119h2V16.48z M2,16.119
			H0v-5.118h2V16.119z M77,8.291h-2V7.912c0-1.103-0.897-2-2-2l-0.026-2H73c2.206,0,4,1.795,4,4V8.291z M0,7.929V7.911
			c0-2.205,1.794-4,4-4h0.387v2H4c-1.104,0-2,0.897-2,2L0,7.929z M69.903,5.912h-5.119v-2h5.119V5.912z M61.713,5.912h-5.119v-2
			h5.119V5.912z M53.524,5.912h-5.119v-2h5.119V5.912z M28.955,5.912h-5.119v-2h5.119V5.912z M20.766,5.912h-5.119v-2h5.119V5.912z
			 M12.577,5.912H7.458v-2h5.119V5.912z"/>
	</g>
	<g>
		<path fill="#D3D3D3" d="M38.5,2.799c1.19,0,2.155,0.965,2.155,2.155c0,1.191-0.965,2.156-2.155,2.156
			c-1.191,0-2.156-0.965-2.156-2.156C36.344,3.764,37.309,2.799,38.5,2.799 M38.5,0c-2.733,0-4.956,2.223-4.956,4.955
			c0,2.733,2.223,4.956,4.956,4.956c2.732,0,4.955-2.223,4.955-4.956S41.233,0,38.5,0L38.5,0z"/>
	</g>
	<g enable-background="new    ">
		<path fill="#9B9A9A" d="M116.891,54.072H99.214v-2.496l12.885-23.073H99.174v-2.617h16.469v2.296l-12.764,23.233h14.013V54.072z"
			/>
		<path fill="#9B9A9A" d="M135.695,44.65H122.85c0,2.576,0.61,4.402,1.832,5.476c1.221,1.074,2.758,1.611,4.611,1.611
			c0.939,0,1.597-0.047,1.973-0.142c0.375-0.094,0.731-0.188,1.067-0.281c0.335-0.094,0.57-0.168,0.705-0.222
			c0.671-0.188,1.248-0.362,1.731-0.523l0.483,2.335c-2.685,0.94-4.779,1.409-6.282,1.409c-2.765,0-4.98-0.838-6.644-2.517
			c-1.665-1.677-2.497-4.2-2.497-7.569s0.786-5.993,2.356-7.872s3.557-2.819,5.959-2.819s4.275,0.779,5.617,2.336
			s2.014,3.664,2.014,6.321C135.776,42.918,135.749,43.737,135.695,44.65z M123.052,42.354h9.825c0-1.986-0.349-3.516-1.047-4.59
			c-0.698-1.073-1.913-1.61-3.644-1.61s-3,0.577-3.805,1.731S123.132,40.529,123.052,42.354z"/>
		<path fill="#9B9A9A" d="M144.433,38.69v15.382h-3.02V33.939h1.933l0.483,2.375c1.289-1.02,2.362-1.737,3.221-2.153
			c0.859-0.416,1.838-0.625,2.939-0.625c0.537,0,0.939,0.027,1.208,0.081l0.564,0.161l-0.483,2.778
			c-0.483-0.161-1.141-0.242-1.973-0.242C147.694,36.314,146.07,37.107,144.433,38.69z"/>
		<path fill="#9B9A9A" d="M169.518,51.576c-1.53,1.825-3.691,2.737-6.483,2.737s-4.932-0.905-6.422-2.718
			c-1.49-1.812-2.234-4.349-2.234-7.61s0.718-5.818,2.154-7.671c1.436-1.852,3.543-2.778,6.322-2.778s4.966,0.94,6.563,2.819
			c1.597,1.879,2.396,4.429,2.396,7.65C171.813,47.226,171.048,49.75,169.518,51.576z M168.793,44.146c0-2.59-0.51-4.57-1.53-5.939
			c-1.021-1.369-2.51-2.053-4.469-2.053c-1.96,0-3.349,0.65-4.167,1.952c-0.819,1.303-1.229,3.296-1.229,5.979
			c0,5.074,1.866,7.61,5.597,7.61c1.959,0,3.416-0.61,4.369-1.832C168.316,48.643,168.793,46.737,168.793,44.146z"/>
		<path fill="#9B9A9A" d="M187.476,54.313c-3.839,0-6.785-1.294-8.838-3.886c-2.054-2.59-3.081-6.1-3.081-10.529
			c0-4.429,1.087-7.933,3.262-10.51c2.174-2.576,5.208-3.865,9.1-3.865c2.147,0,4.254,0.39,6.322,1.168l-0.725,2.496
			c-1.638-0.697-3.571-1.047-5.798-1.047c-2.819,0-5.047,1.027-6.685,3.081c-1.638,2.053-2.456,4.872-2.456,8.455
			c0,3.584,0.771,6.483,2.315,8.698c1.543,2.214,3.697,3.321,6.462,3.321c1.825,0,4.121-0.523,6.886-1.57l0.805,2.094
			C192.737,53.616,190.214,54.313,187.476,54.313z"/>
		<path fill="#9B9A9A" d="M200.724,54.072V25.885h3.02v28.187H200.724z"/>
		<path fill="#9B9A9A" d="M213.528,25.885v3.584h-3.02v-3.584H213.528z M210.508,54.072V33.939h3.02v20.133H210.508z"/>
		<path fill="#9B9A9A" d="M223.272,63.655h-3.02V33.979h1.772l1.047,2.255c1.127-0.858,2.181-1.523,3.161-1.993
			s2.06-0.705,3.242-0.705c4.832,0,7.248,3.478,7.248,10.43c0,3.945-0.859,6.697-2.577,8.254c-1.53,1.424-3.269,2.135-5.214,2.135
			c-1.947,0-3.833-0.645-5.658-1.934V63.655z M223.272,38.932v10.751c0.537,0.644,1.262,1.154,2.174,1.529
			c0.913,0.377,1.785,0.564,2.618,0.564c2.094,0,3.556-0.617,4.389-1.853c0.832-1.234,1.249-3.167,1.249-5.798
			s-0.417-4.617-1.249-5.96c-0.833-1.342-1.893-2.013-3.181-2.013c-0.859,0-1.711,0.175-2.557,0.523s-1.477,0.678-1.893,0.986
			C224.406,37.972,223.889,38.395,223.272,38.932z"/>
		<path fill="#9B9A9A" d="M242.237,25.885h3.02v10.066c2.309-1.637,4.375-2.456,6.201-2.456c4.832,0,7.248,3.477,7.248,10.429
			c0,3.946-0.859,6.712-2.577,8.295c-1.53,1.396-3.329,2.094-5.396,2.094c-1.047,0-2.107-0.235-3.181-0.704
			c-1.074-0.47-1.96-0.973-2.658-1.51l-0.886,1.973h-1.772V25.885z M245.257,38.811v10.952c0.537,0.618,1.254,1.102,2.154,1.449
			c0.899,0.35,1.778,0.524,2.638,0.524c2.094,0,3.556-0.618,4.389-1.853c0.832-1.234,1.249-3.167,1.249-5.799
			c0-2.63-0.417-4.616-1.249-5.959c-0.833-1.342-1.893-2.014-3.181-2.014C249.324,36.113,247.324,37.013,245.257,38.811z"/>
		<path fill="#9B9A9A" d="M277.389,51.576c-1.53,1.825-3.691,2.737-6.483,2.737s-4.932-0.905-6.422-2.718
			c-1.49-1.812-2.234-4.349-2.234-7.61s0.718-5.818,2.154-7.671c1.436-1.852,3.543-2.778,6.322-2.778s4.966,0.94,6.563,2.819
			c1.597,1.879,2.396,4.429,2.396,7.65C279.684,47.226,278.919,49.75,277.389,51.576z M276.664,44.146c0-2.59-0.51-4.57-1.53-5.939
			c-1.021-1.369-2.51-2.053-4.469-2.053c-1.96,0-3.349,0.65-4.167,1.952c-0.819,1.303-1.229,3.296-1.229,5.979
			c0,5.074,1.866,7.61,5.597,7.61c1.959,0,3.416-0.61,4.369-1.832C276.187,48.643,276.664,46.737,276.664,44.146z"/>
		<path fill="#9B9A9A" d="M293.777,42.032h1.651c0-2.442-0.309-4.032-0.926-4.771c-0.618-0.737-1.987-1.106-4.107-1.106
			c-2.121,0-3.92,0.281-5.396,0.845l-0.563-2.335c2.255-0.751,4.59-1.128,7.006-1.128c4.724,0,7.087,2.363,7.087,7.087v13.449
			h-1.772l-1.047-2.376c-1.235,1.021-2.302,1.712-3.201,2.074c-0.899,0.362-1.939,0.543-3.121,0.543
			c-1.879,0-3.342-0.557-4.389-1.671c-1.047-1.113-1.57-2.583-1.57-4.409C283.428,44.1,286.877,42.032,293.777,42.032z
			 M295.468,44.569h-1.812c-2.738,0-4.624,0.269-5.657,0.806c-1.034,0.537-1.55,1.376-1.55,2.517s0.295,2.073,0.886,2.798
			c0.59,0.726,1.362,1.088,2.315,1.088c0.953,0,1.866-0.222,2.738-0.665c0.872-0.442,1.898-1.214,3.08-2.314V44.569z"/>
		<path fill="#9B9A9A" d="M308.877,38.69v15.382h-3.021V33.939h1.933l0.482,2.375c1.289-1.02,2.363-1.737,3.223-2.153
			c0.857-0.416,1.838-0.625,2.939-0.625c0.535,0,0.939,0.027,1.207,0.081l0.564,0.161l-0.484,2.778
			c-0.482-0.161-1.141-0.242-1.973-0.242C312.139,36.314,310.514,37.107,308.877,38.69z"/>
		<path fill="#9B9A9A" d="M332.27,25.885h3.021v28.187h-1.773l-1.006-2.295c-2.471,1.745-4.617,2.617-6.443,2.617
			c-4.832,0-7.246-3.477-7.246-10.429c0-3.946,0.857-6.697,2.576-8.255c1.529-1.423,3.262-2.134,5.193-2.134
			c1.934,0,3.826,0.658,5.678,1.973V25.885z M332.27,49.079V38.61c-0.562-0.671-1.309-1.248-2.234-1.731s-1.779-0.725-2.557-0.725
			c-2.094,0-3.557,0.617-4.389,1.852c-0.832,1.235-1.248,3.168-1.248,5.799s0.416,4.617,1.248,5.959
			c0.832,1.343,1.893,2.014,3.182,2.014C328.203,51.777,330.203,50.877,332.27,49.079z"/>
	</g>
</g>
</svg>
