<?xml version="1.0" encoding="utf-8"?>
<!-- Generator: Adobe Illustrator 16.0.4, SVG Export Plug-In . SVG Version: 6.00 Build 0)  -->
<!DOCTYPE svg PUBLIC "-//W3C//DTD SVG 1.1//EN" "http://www.w3.org/Graphics/SVG/1.1/DTD/svg11.dtd">
<svg version="1.1" id="Layer_1" xmlns="http://www.w3.org/2000/svg" xmlns:xlink="http://www.w3.org/1999/xlink" x="0px" y="0px"
	 width="81px" height="81px" viewBox="0 0 81 81" enable-background="new 0 0 81 81" xml:space="preserve">
<g>
	<path fill="#5A9DD5" d="M72.137,71.274c0,1.558-1.262,2.819-2.818,2.819H11.682c-1.557,0-2.82-1.262-2.82-2.819V13.639
		c0-1.558,1.264-2.819,2.82-2.819h57.637c1.557,0,2.818,1.262,2.818,2.819V71.274z"/>
	<g>
		<path opacity="0.15" d="M66.801,67.621c0,0.998-0.81,1.807-1.807,1.807H16.005c-0.999,0-1.806-0.809-1.806-1.807V17.962
			c0-0.997,0.807-1.807,1.806-1.807h48.989c0.997,0,1.807,0.81,1.807,1.807V67.621z"/>
		<path fill="#FFFFFF" d="M66.801,63.701c0,0.998-0.81,1.807-1.807,1.807H16.005c-0.999,0-1.806-0.809-1.806-1.807V17.962
			c0-0.997,0.807-1.807,1.806-1.807h48.989c0.997,0,1.807,0.81,1.807,1.807V63.701z"/>
	</g>
	<path fill="#D3D3D3" d="M55.805,13.312l-4.896-0.001c-5.156,0-6.629-5.116-6.629-5.116h-7.559c0,0-1.473,5.116-6.629,5.116
		l-4.896,0.001c-2.17,0-3.929,1.759-3.929,3.929v1.531h16.614h5.238h16.613v-1.531C59.732,15.071,57.975,13.312,55.805,13.312z"/>
	<rect x="21.267" y="18.749" fill="#A5A4A4" width="38.466" height="2.229"/>
	<path fill="#9B9A9A" d="M46.604,35.235c0-3.335-2.739-6.049-6.104-6.049c-3.366,0-6.105,2.74-6.105,6.105v15.003
		c0,3.422,2.739,6.161,6.105,6.161c3.365,0,6.104-2.764,6.104-6.161V35.235z M43.827,50.295c0,1.866-1.493,3.384-3.327,3.384
		c-1.835,0-3.328-1.518-3.328-3.384c0-0.712,0-0.86,0.296-1.157l6.359-8.486V50.295z M43.668,36.394l-6.496,8.588v-9.689
		c0-1.834,1.493-3.328,3.328-3.328c1.834,0,3.327,1.494,3.327,3.328C43.827,36.001,43.827,36.075,43.668,36.394z"/>
	<g>
		<path fill="#D3D3D3" d="M75,80.956h-0.404v-2H75c1.103,0,2-0.896,2-2l2-0.035v0.035C79,79.162,77.206,80.956,75,80.956z
			 M71.523,80.956h-5.117v-2h5.117V80.956z M63.334,80.956h-5.117v-2h5.117V80.956z M55.145,80.956h-5.117v-2h5.117V80.956z
			 M46.955,80.956h-5.117v-2h5.117V80.956z M38.766,80.956h-5.117v-2h5.117V80.956z M30.576,80.956h-5.118v-2h5.118V80.956z
			 M22.387,80.956h-5.118v-2h5.118V80.956z M14.197,80.956H9.079v-2h5.118V80.956z M6.008,80.956H6c-2.206,0-4-1.794-4-4v-0.395h2
			v0.395c0,1.104,0.896,2,2,2L6.008,80.956z M79,73.851h-2v-5.119h2V73.851z M4,73.489H2v-5.117h2V73.489z M79,65.661h-2v-5.119h2
			V65.661z M4,65.3H2v-5.117h2V65.3z M79,57.472h-2v-5.119h2V57.472z M4,57.11H2v-5.117h2V57.11z M79,49.282h-2v-5.119h2V49.282z
			 M4,48.921H2v-5.117h2V48.921z M79,41.093h-2v-5.119h2V41.093z M4,40.731H2v-5.117h2V40.731z M79,32.903h-2v-5.119h2V32.903z
			 M4,32.542H2v-5.117h2V32.542z M79,24.714h-2v-5.119h2V24.714z M4,24.353H2v-5.118h2V24.353z M79,16.524h-2v-5.119h2V16.524z
			 M4,16.163H2v-5.118h2V16.163z M79,8.335h-2V7.956c0-1.103-0.897-2-2-2l-0.026-2H75c2.206,0,4,1.795,4,4V8.335z M2,7.974V7.956
			c0-2.205,1.794-4,4-4h0.387v2H6c-1.104,0-2,0.897-2,2L2,7.974z M71.902,5.956h-5.119v-2h5.119V5.956z M63.713,5.956h-5.119v-2
			h5.119V5.956z M55.523,5.956h-5.119v-2h5.119V5.956z M30.955,5.956h-5.119v-2h5.119V5.956z M22.766,5.956h-5.119v-2h5.119V5.956z
			 M14.576,5.956H9.457v-2h5.119V5.956z"/>
	</g>
	<path fill="#D3D3D3" d="M40.5,2.844c1.19,0,2.155,0.965,2.155,2.155c0,1.191-0.965,2.156-2.155,2.156
		c-1.191,0-2.156-0.965-2.156-2.156C38.344,3.809,39.309,2.844,40.5,2.844 M40.5,0.044c-2.733,0-4.956,2.223-4.956,4.955
		c0,2.733,2.223,4.956,4.956,4.956c2.732,0,4.955-2.223,4.955-4.956C45.455,2.267,43.232,0.044,40.5,0.044L40.5,0.044z"/>
</g>
</svg>
